<svg width="45" height="58" viewBox="0 0 45 58" fill="none" xmlns="http://www.w3.org/2000/svg">
<g opacity="0.8">
<path d="M34.0476 46.1293C37.1723 46.1293 39.7582 48.7269 39.7582 51.8656C39.7582 55.0044 37.1723 57.602 34.0476 57.602C30.923 57.602 28.337 55.0044 28.337 51.8656C28.337 48.6186 30.923 46.1293 34.0476 46.1293ZM34.0476 55.762C36.2026 55.762 37.9265 54.0303 37.9265 51.8656C37.9265 49.701 36.2026 47.9692 34.0476 47.9692C31.8927 47.9692 30.1687 49.701 30.1687 51.8656C30.1687 54.0303 31.8927 55.762 34.0476 55.762Z" fill="#2DCFC1"/>
<path d="M13.4684 25.998C16.5931 25.998 19.179 28.5956 19.179 31.7344C19.179 34.8731 16.5931 37.4707 13.4684 37.4707C10.3438 37.4707 7.75781 34.8731 7.75781 31.7344C7.75781 28.4874 10.3438 25.998 13.4684 25.998ZM13.4684 35.6308C15.6234 35.6308 17.3473 33.8991 17.3473 31.7344C17.3473 29.5697 15.6234 27.838 13.4684 27.838C11.3135 27.838 9.58953 29.5697 9.58953 31.7344C9.58953 33.8991 11.3135 35.6308 13.4684 35.6308Z" fill="#FFAA01"/>
<path d="M6.46515 7.2738C7.00388 7.2738 7.32711 7.70673 7.32711 8.13967V12.1443C7.32711 12.6855 6.89613 13.0101 6.46515 13.0101C5.92641 13.0101 5.60315 12.5772 5.60315 12.1443V8.13967C5.60315 7.70673 5.92641 7.2738 6.46515 7.2738Z" fill="#2DCFC1"/>
<path d="M6.46515 0.346802C7.00388 0.346802 7.32711 0.779737 7.32711 1.21267V5.21728C7.32711 5.75845 6.89613 6.08315 6.46515 6.08315C5.92641 6.08315 5.60315 5.65022 5.60315 5.21728V1.21267C5.60315 0.779737 5.92641 0.346802 6.46515 0.346802Z" fill="#2DCFC1"/>
<path d="M0.861963 5.75854H4.4176C4.95634 5.75854 5.2796 6.19148 5.2796 6.62441C5.2796 7.05734 4.84859 7.49027 4.4176 7.49027H0.861963C0.323228 7.49027 0 7.05734 0 6.62441C0 6.19148 0.430975 5.75854 0.861963 5.75854Z" fill="#2DCFC1"/>
<path d="M8.40396 5.75854H11.9596C12.4983 5.75854 12.8216 6.19148 12.8216 6.62441C12.8216 7.05734 12.3906 7.49027 11.9596 7.49027H8.40396C7.86522 7.49027 7.54199 7.05734 7.54199 6.62441C7.54199 6.19148 7.97297 5.75854 8.40396 5.75854Z" fill="#2DCFC1"/>
<path d="M38.034 29.5698C38.5727 29.5698 38.8959 30.0028 38.8959 30.4357V34.4403C38.8959 34.9815 38.465 35.3062 38.034 35.3062C37.4952 35.3062 37.172 34.8732 37.172 34.4403V30.4357C37.0643 29.8945 37.4952 29.5698 38.034 29.5698Z" fill="#FFAA01"/>
<path d="M38.0339 22.6428C38.5726 22.6428 38.8958 23.0758 38.8958 23.5087V27.5133C38.8958 28.0545 38.4648 28.3792 38.0339 28.3792C37.4951 28.3792 37.1719 27.9462 37.1719 27.5133V23.5087C37.0641 22.9675 37.4951 22.6428 38.0339 22.6428Z" fill="#FFAA01"/>
<path d="M32.432 28.0546H35.9877C36.5264 28.0546 36.8497 28.4875 36.8497 28.9204C36.8497 29.4616 36.4187 29.7863 35.9877 29.7863H32.432C31.8933 29.7863 31.5701 29.3534 31.5701 28.9204C31.5701 28.4875 32.001 28.0546 32.432 28.0546Z" fill="#FFAA01"/>
<path d="M39.9735 28.0546H43.5292C44.0679 28.0546 44.3912 28.4875 44.3912 28.9204C44.3912 29.4616 43.9602 29.7863 43.5292 29.7863H39.9735C39.4348 29.7863 39.1116 29.3534 39.1116 28.9204C39.1116 28.4875 39.5425 28.0546 39.9735 28.0546Z" fill="#FFAA01"/>
</g>
</svg>
