<svg width="10" height="10" viewBox="0 0 10 10" fill="none" xmlns="http://www.w3.org/2000/svg">
<path fill-rule="evenodd" clip-rule="evenodd" d="M0.201364 0.201364C0.46985 -0.0671214 0.905151 -0.0671214 1.17364 0.201364L4.8125 3.84023L8.45136 0.201364C8.71985 -0.0671214 9.15515 -0.0671214 9.42364 0.201364C9.69212 0.46985 9.69212 0.905151 9.42364 1.17364L5.78477 4.8125L9.42364 8.45136C9.69212 8.71985 9.69212 9.15515 9.42364 9.42364C9.15515 9.69212 8.71985 9.69212 8.45136 9.42364L4.8125 5.78477L1.17364 9.42364C0.905151 9.69212 0.46985 9.69212 0.201364 9.42364C-0.0671214 9.15515 -0.0671214 8.71985 0.201364 8.45136L3.84023 4.8125L0.201364 1.17364C-0.0671214 0.905151 -0.0671214 0.46985 0.201364 0.201364Z" fill="#343434"/>
</svg>
